<svg id="Layer_1" data-name="Layer 1" xmlns="http://www.w3.org/2000/svg" xmlns:xlink="http://www.w3.org/1999/xlink" viewBox="0 0 1200.99 851.29"><defs><style>.cls-1{fill:none;}.cls-2{fill:#1c3749;}.cls-3{fill:#013448;}.cls-4{fill:#fff;}.cls-5{fill:#ef4537;}.cls-6{fill:#f47736;}.cls-7{clip-path:url(#clip-path);}.cls-8{clip-path:url(#clip-path-2);}</style><clipPath id="clip-path"><path class="cls-1" d="M444.17,597.35a62.58,62.58,0,0,1,0,125.16V597.35Z"/></clipPath><clipPath id="clip-path-2"><path class="cls-1" d="M569.33,722.51a62.58,62.58,0,0,1,0-125.16V722.51Z"/></clipPath></defs><title>community</title><path class="cls-2" d="M1153.42,597.29h-30a51.79,51.79,0,0,0-51.73-51.73v-30A81.87,81.87,0,0,1,1153.42,597.29Z"/><rect class="cls-2" x="773.86" y="515.51" width="297.79" height="30.04"/><rect class="cls-2" x="1123.39" width="30.04" height="463.78"/><path class="cls-2" d="M1071.65,545.55v-30a51.79,51.79,0,0,0,51.73-51.73h30A81.87,81.87,0,0,1,1071.65,545.55Z"/><path class="cls-2" d="M77.6,851.29h-30a81.87,81.87,0,0,1,81.77-81.77v30A51.79,51.79,0,0,0,77.6,851.29Z"/><path class="cls-2" d="M388.26,851.29h-30A81.87,81.87,0,0,1,440,769.52v30A51.79,51.79,0,0,0,388.26,851.29Z"/><path class="cls-2" d="M1068.06,804.29h-30a51.79,51.79,0,0,0-51.73-51.73v-30A81.87,81.87,0,0,1,1068.06,804.29Z"/><path class="cls-2" d="M852.78,752.55A81.87,81.87,0,0,1,771,670.78h30a51.79,51.79,0,0,0,51.73,51.73v30Z"/><path class="cls-2" d="M440,799.56v-30a51.79,51.79,0,0,0,51.73-51.73h30A81.87,81.87,0,0,1,440,799.56Z"/><path class="cls-2" d="M801,670.78H771A81.87,81.87,0,0,1,852.78,589v30A51.79,51.79,0,0,0,801,670.78Z"/><path class="cls-2" d="M588.62,793.91h-30a81.87,81.87,0,0,1,81.77-81.77v30A51.79,51.79,0,0,0,588.62,793.91Z"/><path class="cls-2" d="M934.55,670.78h-30A51.79,51.79,0,0,0,852.78,619V589A81.87,81.87,0,0,1,934.55,670.78Z"/><path class="cls-2" d="M129.34,799.56v-30a51.79,51.79,0,0,0,51.73-51.73h30A81.87,81.87,0,0,1,129.34,799.56Z"/><path class="cls-2" d="M211.11,655.76h-30A81.87,81.87,0,0,1,262.84,574v30A51.79,51.79,0,0,0,211.11,655.76Z"/><path class="cls-2" d="M329.6,604V574a51.79,51.79,0,0,0,51.73-51.73h30A81.87,81.87,0,0,1,329.6,604Z"/><path class="cls-2" d="M277.86,434.83h-30a81.87,81.87,0,0,1,81.77-81.77h99.49a51.79,51.79,0,0,0,51.73-51.73h30a81.87,81.87,0,0,1-81.77,81.77H329.6A51.79,51.79,0,0,0,277.86,434.83Z"/><path class="cls-2" d="M329.6,604a81.87,81.87,0,0,1-81.77-81.77h30A51.79,51.79,0,0,0,329.6,574v30Z"/><path class="cls-2" d="M129.34,82.32A81.87,81.87,0,0,1,47.56.55h30a51.79,51.79,0,0,0,51.73,51.73v30Z"/><path class="cls-2" d="M329.6,383.1a81.87,81.87,0,0,1-81.77-81.77h30a51.79,51.79,0,0,0,51.73,51.73v30Z"/><path class="cls-2" d="M277.86,301.32h-30a51.79,51.79,0,0,0-51.73-51.73v-30A81.87,81.87,0,0,1,277.86,301.32Z"/><path class="cls-2" d="M277.86,134.05h-30a51.79,51.79,0,0,0-51.73-51.73v-30A81.87,81.87,0,0,1,277.86,134.05Z"/><path class="cls-2" d="M329.6,215.83a81.87,81.87,0,0,1-81.77-81.77h30a51.79,51.79,0,0,0,51.73,51.73v30Z"/><path class="cls-2" d="M329.6,215.83v-30a51.79,51.79,0,0,0,51.73-51.73h30A81.87,81.87,0,0,1,329.6,215.83Z"/><path class="cls-2" d="M77.6,301.32h-30a81.87,81.87,0,0,1,81.77-81.77v30A51.79,51.79,0,0,0,77.6,301.32Z"/><path class="cls-2" d="M411.37,434.83h-30A51.79,51.79,0,0,0,329.6,383.1v-30A81.87,81.87,0,0,1,411.37,434.83Z"/><rect class="cls-2" x="181.07" y="655.76" width="30.04" height="66.75"/><rect class="cls-2" x="904.51" y="670.78" width="30.04" height="180.51"/><rect class="cls-2" x="692.09" y="669.34" width="30.04" height="181.95"/><rect class="cls-2" x="558.58" y="793.91" width="30.04" height="57.38"/><path class="cls-2" d="M722.13,597.29h-30a81.87,81.87,0,0,1,81.77-81.77v30A51.79,51.79,0,0,0,722.13,597.29Z"/><path class="cls-2" d="M691.71,82A81.87,81.87,0,0,1,609.94.18h30a51.79,51.79,0,0,0,51.73,51.73V82Z"/><path class="cls-2" d="M691.71,82v-30A51.79,51.79,0,0,0,743.45.18h30A81.87,81.87,0,0,1,691.71,82Z"/><path class="cls-2" d="M1071.65,163V133a51.79,51.79,0,0,0,51.73-51.73h30A81.87,81.87,0,0,1,1071.65,163Z"/><path class="cls-2" d="M691.7,163a81.87,81.87,0,0,1-81.76-81.13l30-.24A51.82,51.82,0,0,0,692.12,133l0.24,30H691.7Z"/><path class="cls-2" d="M521.77,597.29h-30a81.87,81.87,0,0,1,81.77-81.77v30A51.79,51.79,0,0,0,521.77,597.29Z"/><rect class="cls-2" x="691.99" y="597.29" width="30.04" height="66.75"/><path class="cls-2" d="M722,597.29H692a51.79,51.79,0,0,0-51.73-51.73v-30A81.87,81.87,0,0,1,722,597.29Z"/><path class="cls-2" d="M640.36,742.18v-30a51.79,51.79,0,0,0,51.73-51.73h30A81.87,81.87,0,0,1,640.36,742.18Z"/><rect class="cls-2" x="852.78" y="722.51" width="133.51" height="30.04"/><rect class="cls-2" x="573.5" y="515.51" width="66.75" height="30.04"/><rect class="cls-2" x="381.33" y="434.83" width="30.04" height="87.42"/><rect class="cls-2" x="129.34" y="219.55" width="66.75" height="30.04"/><rect class="cls-2" x="247.82" y="434.83" width="30.04" height="87.42"/><rect class="cls-2" x="480.82" y="0.53" width="30.04" height="300.79"/><rect class="cls-2" x="692.24" y="133" width="379.41" height="30.04"/><rect class="cls-2" x="609.94" y="0.53" width="30.04" height="81.27"/><rect class="cls-2" x="381.33" y="0.53" width="30.04" height="133.52"/><rect class="cls-2" x="47.56" y="301.32" width="30.04" height="549.97"/><rect class="cls-2" x="1123.39" y="722.45" width="30.04" height="128.84"/><rect class="cls-2" x="262.84" y="573.98" width="66.75" height="30.04"/><polygon class="cls-3" points="495.84 88.35 558.42 88.35 558.42 150.93 495.84 88.35"/><polygon class="cls-4" points="495.84 213.51 433.26 213.51 433.26 150.93 495.84 213.51"/><rect class="cls-4" x="433.26" y="88.35" width="62.58" height="62.58"/><rect class="cls-3" x="495.84" y="150.93" width="62.58" height="62.58"/><circle class="cls-5" cx="527.13" cy="119.64" r="24.54"/><circle class="cls-5" cx="464.55" cy="182.22" r="24.54"/><polygon class="cls-4" points="495.84 150.93 558.42 150.93 558.42 213.51 495.84 150.93"/><polygon class="cls-4" points="558.42 150.93 495.84 150.93 495.84 88.35 558.42 150.93"/><path class="cls-4" d="M544.12,165.23L526.92,148l-17.2,17.2a24.33,24.33,0,0,0,16.6,41.52h1.2A24.33,24.33,0,0,0,544.12,165.23Z"/><polygon class="cls-3" points="495.84 150.93 433.26 150.93 433.26 88.35 495.84 150.93"/><polygon class="cls-3" points="433.26 150.93 495.84 150.93 495.84 213.51 433.26 150.93"/><path class="cls-3" d="M447.35,136.63l17.2,17.2,17.2-17.2a24.33,24.33,0,0,0-16.6-41.52h-1.2A24.33,24.33,0,0,0,447.35,136.63Z"/><circle class="cls-4" cx="396.35" cy="478.54" r="62.58"/><path class="cls-5" d="M441.49,494.2a21.28,21.28,0,0,1-30.1,0l-15-15-15-15A21.28,21.28,0,0,0,345,478.63c0,0.18,0,.35,0,0.53s0,0.35,0,.53a51.37,51.37,0,0,0,102.74,0A21.21,21.21,0,0,1,441.49,494.2Z"/><path class="cls-6" d="M411.4,464.11l-15,15,15,15a21.28,21.28,0,0,0,36.32-14.52c0-.18,0-0.35,0-0.53s0-.35,0-0.53A21.28,21.28,0,0,0,411.4,464.11Z"/><rect class="cls-3" y="597.35" width="125.16" height="125.16"/><path class="cls-4" d="M0,597.35H0a62.58,62.58,0,0,1,62.58,62.58H0V597.35Z"/><path class="cls-6" d="M62.58,597.35h62.58v62.58h0a62.58,62.58,0,0,1-62.58-62.58h0Z"/><path class="cls-5" d="M0,659.93H0a62.58,62.58,0,0,1,62.58,62.58H0V659.93Z"/><path class="cls-4" d="M125.16,659.93v62.58h0a62.58,62.58,0,0,1-62.58-62.58h62.58Z"/><circle class="cls-5" cx="62" cy="766.39" r="11.53"/><circle class="cls-5" cx="1126.72" cy="119.57" r="11.53"/><circle class="cls-5" cx="801.84" cy="530.53" r="11.53"/><circle class="cls-5" cx="374.93" cy="385.55" r="11.53"/><circle class="cls-4" cx="919.53" cy="737.53" r="11.53"/><path class="cls-2" d="M716.61,214.78h-30A81.87,81.87,0,0,1,768.34,133v30A51.79,51.79,0,0,0,716.61,214.78Z"/><path class="cls-2" d="M634.83,469.32v-30a51.79,51.79,0,0,0,51.73-51.73h30A81.87,81.87,0,0,1,634.83,469.32Z"/><path class="cls-2" d="M1019.92,463.22h-30V387.55a51.79,51.79,0,0,0-51.73-51.73v-30a81.87,81.87,0,0,1,81.77,81.77v75.67Z"/><path class="cls-2" d="M634.83,469.32a81.87,81.87,0,0,1-81.77-81.77h30a51.79,51.79,0,0,0,51.73,51.73v30Z"/><path class="cls-2" d="M1071.65,545.55c-45.09,0-81.77-36.93-81.77-82.33h30c0,28.83,23.21,52.29,51.73,52.29v30Z"/><path class="cls-2" d="M583.1,387.55h-30a81.87,81.87,0,0,1,81.77-81.77v30A51.79,51.79,0,0,0,583.1,387.55Z"/><rect class="cls-2" x="634.83" y="305.78" width="303.31" height="30.04"/><rect class="cls-2" x="686.57" y="214.78" width="30.04" height="172.77"/><circle class="cls-4" cx="701.59" cy="320.8" r="11.53"/><circle class="cls-4" cx="443.53" cy="784.54" r="11.53"/><circle class="cls-4" cx="777.38" cy="148.02" r="11.53"/><circle class="cls-4" cx="180.54" cy="234.57" r="11.53"/><rect class="cls-6" x="828" y="85.49" width="125.16" height="125.16" rx="62.58" ry="62.58" transform="translate(1781.16 296.15) rotate(-180)"/><rect class="cls-4" x="857.5" y="114.99" width="66.17" height="66.17" rx="33.08" ry="33.08" transform="translate(1781.16 296.15) rotate(180)"/><rect class="cls-5" x="890.58" y="148.07" width="62.58" height="62.58" transform="translate(1843.74 358.73) rotate(180)"/><rect class="cls-5" x="828" y="85.49" width="62.58" height="62.58" transform="translate(1718.58 233.57) rotate(180)"/><rect class="cls-2" x="47.81" y="6.16" width="30.04" height="413.62"/><path class="cls-2" d="M62.83,430.66a62.58,62.58,0,0,1,0-125.16V430.66Z"/><path class="cls-4" d="M62.83,305.5a62.58,62.58,0,0,1,0,125.16V305.5Z"/><path class="cls-5" d="M62.83,419.78a51.54,51.54,0,1,1,51.54-51.54A51.6,51.6,0,0,1,62.83,419.78Zm0-96.58a45,45,0,1,0,45,45A45.09,45.09,0,0,0,62.83,323.2Z"/><rect class="cls-5" x="1075.82" y="597.29" width="125.16" height="125.16"/><rect class="cls-6" x="1075.82" y="659.87" width="125.16" height="62.58"/><path class="cls-3" d="M1138.4,722.45a62.58,62.58,0,0,1-62.58-62.58h62.58v62.58Z"/><path class="cls-3" d="M1201,659.87a62.58,62.58,0,0,1-62.58,62.58V659.87H1201Z"/><polyline class="cls-3" points="1075.82 659.87 1138.4 597.29 1200.99 659.87"/><polyline class="cls-4" points="1200.99 659.87 1138.4 722.45 1075.82 659.87"/><polyline class="cls-4" points="1106.57 659.87 1138.4 628.04 1170.24 659.87"/><polyline class="cls-3" points="1170.24 659.87 1138.4 691.7 1106.57 659.87"/><rect class="cls-2" x="1038.02" y="804.29" width="30.04" height="47"/><rect class="cls-2" x="129.34" y="52.28" width="66.75" height="30.04"/><polygon class="cls-5" points="569.33 597.35 569.33 722.51 444.17 722.51 569.33 597.35"/><polygon class="cls-3" points="444.17 722.51 444.17 597.35 569.33 597.35 444.17 722.51"/><path class="cls-3" d="M444.17,597.35a62.58,62.58,0,0,1,0,125.16V597.35Z"/><g class="cls-7"><rect class="cls-4" x="493.92" y="597.35" width="6.5" height="125.16"/><rect class="cls-4" x="477.34" y="597.35" width="6.5" height="125.16"/><rect class="cls-4" x="460.77" y="597.35" width="6.5" height="125.16"/><rect class="cls-4" x="444.19" y="597.35" width="6.5" height="125.16"/></g><path class="cls-5" d="M569.33,722.51a62.58,62.58,0,0,1,0-125.16V722.51Z"/><g class="cls-8"><rect class="cls-4" x="562.88" y="597.35" width="6.5" height="125.16"/><rect class="cls-4" x="546.28" y="597.35" width="6.5" height="125.16"/><rect class="cls-4" x="529.67" y="597.35" width="6.5" height="125.16"/><rect class="cls-4" x="513.07" y="597.35" width="6.5" height="125.16"/></g></svg>